<svg width="200" height="56" viewBox="0 0 200 56" fill="none" xmlns="http://www.w3.org/2000/svg">
<g clip-path="url(#clip0_70_1658)">
<rect width="200" height="56" fill="white"/>
<path d="M45.6349 40V16.7273H53.9304C55.741 16.7273 57.241 17.0568 58.4304 17.7159C59.6198 18.375 60.5099 19.2765 61.1009 20.4205C61.6918 21.5568 61.9872 22.8371 61.9872 24.2614C61.9872 25.6932 61.688 26.9811 61.0895 28.125C60.4986 29.2614 59.6046 30.1629 58.4077 30.8295C57.2183 31.4886 55.7221 31.8182 53.919 31.8182H48.2145V28.8409H53.6009C54.7448 28.8409 55.6728 28.6439 56.3849 28.25C57.0971 27.8485 57.6198 27.303 57.9531 26.6136C58.2865 25.9242 58.4531 25.1402 58.4531 24.2614C58.4531 23.3826 58.2865 22.6023 57.9531 21.9205C57.6198 21.2386 57.0933 20.7045 56.3736 20.3182C55.6615 19.9318 54.7221 19.7386 53.5554 19.7386H49.1463V40H45.6349ZM69.2287 29.6364V40H65.831V16.7273H69.1832V25.3864H69.3991C69.8082 24.447 70.4332 23.7008 71.2741 23.1477C72.1151 22.5947 73.2135 22.3182 74.5696 22.3182C75.7666 22.3182 76.812 22.5644 77.706 23.0568C78.6075 23.5492 79.3045 24.2841 79.7969 25.2614C80.2969 26.2311 80.5469 27.4432 80.5469 28.8977V40H77.1491V29.3068C77.1491 28.0265 76.8196 27.0341 76.1605 26.3295C75.5014 25.6174 74.5848 25.2614 73.4105 25.2614C72.6075 25.2614 71.8878 25.4318 71.2514 25.7727C70.6226 26.1136 70.1264 26.6136 69.7628 27.2727C69.4067 27.9242 69.2287 28.7121 69.2287 29.6364ZM92.6037 40.3523C90.884 40.3523 89.4029 39.9848 88.1605 39.25C86.9257 38.5076 85.9711 37.4659 85.2969 36.125C84.6302 34.7765 84.2969 33.197 84.2969 31.3864C84.2969 29.5985 84.6302 28.0227 85.2969 26.6591C85.9711 25.2955 86.9105 24.2311 88.1151 23.4659C89.3272 22.7008 90.7438 22.3182 92.3651 22.3182C93.3499 22.3182 94.3045 22.4811 95.2287 22.8068C96.1529 23.1326 96.9825 23.6439 97.7173 24.3409C98.4522 25.0379 99.0317 25.9432 99.456 27.0568C99.8802 28.1629 100.092 29.5076 100.092 31.0909V32.2955H86.2173V29.75H96.7628C96.7628 28.8561 96.581 28.0644 96.2173 27.375C95.8537 26.678 95.3423 26.1288 94.6832 25.7273C94.0317 25.3258 93.2666 25.125 92.3878 25.125C91.4332 25.125 90.5999 25.3598 89.8878 25.8295C89.1832 26.2917 88.6378 26.8977 88.2514 27.6477C87.8726 28.3902 87.6832 29.197 87.6832 30.0682V32.0568C87.6832 33.2235 87.8878 34.2159 88.2969 35.0341C88.7135 35.8523 89.2931 36.4773 90.0355 36.9091C90.7779 37.3333 91.6454 37.5455 92.6378 37.5455C93.2817 37.5455 93.8688 37.4545 94.3991 37.2727C94.9295 37.0833 95.3878 36.803 95.7741 36.4318C96.1605 36.0606 96.456 35.6023 96.6605 35.0568L99.8764 35.6364C99.6188 36.5833 99.1567 37.4129 98.4901 38.125C97.831 38.8295 97.0014 39.3788 96.0014 39.7727C95.009 40.1591 93.8764 40.3523 92.6037 40.3523ZM117.99 40.3409C116.581 40.3409 115.323 39.9811 114.217 39.2614C113.119 38.5341 112.255 37.5 111.626 36.1591C111.005 34.8106 110.695 33.1932 110.695 31.3068C110.695 29.4205 111.009 27.8068 111.638 26.4659C112.274 25.125 113.145 24.0985 114.251 23.3864C115.357 22.6742 116.611 22.3182 118.013 22.3182C119.096 22.3182 119.967 22.5 120.626 22.8636C121.293 23.2197 121.808 23.6364 122.172 24.1136C122.543 24.5909 122.831 25.0114 123.036 25.375H123.24V16.7273H126.638V40H123.32V37.2841H123.036C122.831 37.6553 122.536 38.0795 122.149 38.5568C121.77 39.0341 121.248 39.4508 120.581 39.8068C119.914 40.1629 119.051 40.3409 117.99 40.3409ZM118.74 37.4432C119.717 37.4432 120.543 37.1856 121.217 36.6705C121.899 36.1477 122.414 35.4242 122.763 34.5C123.119 33.5758 123.297 32.5 123.297 31.2727C123.297 30.0606 123.123 29 122.774 28.0909C122.426 27.1818 121.914 26.4735 121.24 25.9659C120.566 25.4583 119.732 25.2045 118.74 25.2045C117.717 25.2045 116.865 25.4697 116.183 26C115.501 26.5303 114.986 27.2538 114.638 28.1705C114.297 29.0871 114.126 30.1212 114.126 31.2727C114.126 32.4394 114.301 33.4886 114.649 34.4205C114.998 35.3523 115.513 36.0909 116.195 36.6364C116.884 37.1742 117.732 37.4432 118.74 37.4432ZM131.487 40V22.5455H134.885V40H131.487ZM133.203 19.8523C132.612 19.8523 132.105 19.6553 131.68 19.2614C131.264 18.8598 131.055 18.3826 131.055 17.8295C131.055 17.2689 131.264 16.7917 131.68 16.3977C132.105 15.9962 132.612 15.7955 133.203 15.7955C133.794 15.7955 134.298 15.9962 134.714 16.3977C135.139 16.7917 135.351 17.2689 135.351 17.8295C135.351 18.3826 135.139 18.8598 134.714 19.2614C134.298 19.6553 133.794 19.8523 133.203 19.8523ZM139.456 46.5455V22.5455H142.774V25.375H143.058C143.255 25.0114 143.539 24.5909 143.911 24.1136C144.282 23.6364 144.797 23.2197 145.456 22.8636C146.115 22.5 146.986 22.3182 148.07 22.3182C149.479 22.3182 150.736 22.6742 151.842 23.3864C152.948 24.0985 153.816 25.125 154.445 26.4659C155.081 27.8068 155.399 29.4205 155.399 31.3068C155.399 33.1932 155.085 34.8106 154.456 36.1591C153.827 37.5 152.964 38.5341 151.865 39.2614C150.767 39.9811 149.513 40.3409 148.104 40.3409C147.043 40.3409 146.176 40.1629 145.501 39.8068C144.835 39.4508 144.312 39.0341 143.933 38.5568C143.554 38.0795 143.263 37.6553 143.058 37.2841H142.854V46.5455H139.456ZM142.786 31.2727C142.786 32.5 142.964 33.5758 143.32 34.5C143.676 35.4242 144.191 36.1477 144.865 36.6705C145.539 37.1856 146.365 37.4432 147.342 37.4432C148.357 37.4432 149.206 37.1742 149.888 36.6364C150.57 36.0909 151.085 35.3523 151.433 34.4205C151.789 33.4886 151.967 32.4394 151.967 31.2727C151.967 30.1212 151.793 29.0871 151.445 28.1705C151.104 27.2538 150.589 26.5303 149.899 26C149.217 25.4697 148.365 25.2045 147.342 25.2045C146.357 25.2045 145.524 25.4583 144.842 25.9659C144.168 26.4735 143.657 27.1818 143.308 28.0909C142.96 29 142.786 30.0606 142.786 31.2727Z" fill="#2C3639"/>
<path d="M104.033 40V22.5455H106.714V40H104.033ZM105.396 19.6364C104.874 19.6364 104.423 19.4583 104.044 19.1023C103.673 18.7462 103.487 18.3182 103.487 17.8182C103.487 17.3182 103.673 16.8902 104.044 16.5341C104.423 16.178 104.874 16 105.396 16C105.919 16 106.366 16.178 106.737 16.5341C107.116 16.8902 107.305 17.3182 107.305 17.8182C107.305 18.3182 107.116 18.7462 106.737 19.1023C106.366 19.4583 105.919 19.6364 105.396 19.6364Z" fill="#DCD7C9"/>
<path d="M101.578 29.5227H109.169V31.7045H101.578V29.5227Z" fill="#DCD7C9"/>
</g>
<defs>
<clipPath id="clip0_70_1658">
<rect width="200" height="56" fill="white"/>
</clipPath>
</defs>
</svg>
